<svg xmlns="http://www.w3.org/2000/svg" viewBox="0 0 568.93 530.18"><defs><style>.cls-1{fill:#e0d0b8;}.cls-1,.cls-3{stroke:#000;stroke-miterlimit:10;stroke-width:2px;}.cls-2{fill:#a7603b;}.cls-3{fill:none;}.cls-4{fill:#944c2d;}</style></defs><title>資產 1</title><g id="圖層_2" data-name="圖層 2"><g id="圖層_1-2" data-name="圖層 1"><path class="cls-1" d="M9.47,171.1C-4.32,218.75,2.15,261,5.25,279.45c10.9,64.86,44.07,107.07,63.26,130.87,50.4,62.54,109.82,88.79,124.32,94.88,80.72,33.9,153.52,24,186.5,17.08a750.42,750.42,0,0,1-212-139.58A750.21,750.21,0,0,1,9.47,171.1Z"/><path class="cls-2" d="M523.82,135.5c-15-17.53-42.58-41.39-56.71-86.16a177.82,177.82,0,0,1-7.64-39.26c-7.15,4.87-18.73,11.14-33.26,11.46A55.94,55.94,0,0,1,405,17.72c-14.73-5.49-40-8.21-90.52-13.63-25.58-2.75-71-7.63-124.87,6.54C133.38,25.39,97.05,53.19,88.14,60.25c-16,12.63-43.63,35-63.8,73.61A200.57,200.57,0,0,0,9.47,171.1,749.92,749.92,0,0,0,159.9,375.6,750.31,750.31,0,0,0,379.33,522.28c5.2-1.1,9.44-2.13,12.53-2.9,8.51-2.12,17.59-4.39,27-7.26,23.13-7.05,48.52-17.77,73.29-39.09,57.63-49.59,68-118.68,72-145.59C567,308.69,581.83,203.14,523.82,135.5Z"/><path class="cls-3" d="M523.82,135.5c-15-17.53-42.58-41.39-56.71-86.16a177.82,177.82,0,0,1-7.64-39.26c-7.15,4.87-18.73,11.14-33.26,11.46A55.94,55.94,0,0,1,405,17.72c-14.73-5.49-40-8.21-90.52-13.63-25.58-2.75-71-7.63-124.87,6.54C133.38,25.39,97.05,53.19,88.14,60.25c-16,12.63-43.63,35-63.8,73.61A200.57,200.57,0,0,0,9.47,171.1,749.92,749.92,0,0,0,159.9,375.6,750.31,750.31,0,0,0,379.33,522.28c5.2-1.1,9.44-2.13,12.53-2.9,8.51-2.12,17.59-4.39,27-7.26,23.13-7.05,48.52-17.77,73.29-39.09,57.63-49.59,68-118.68,72-145.59C567,308.69,581.83,203.14,523.82,135.5Z"/><path d="M45.23,332.61c5.68,0,5.69-8.83,0-8.83s-5.7,8.83,0,8.83Z"/><path d="M58.15,366.75c5.68,0,5.69-8.83,0-8.83s-5.7,8.83,0,8.83Z"/><path d="M130.08,444.47l1.46,2.91a4.42,4.42,0,0,0,7.63-4.46L137.71,440a4.42,4.42,0,0,0-7.63,4.46Z"/><path d="M199.58,470.8l1.48,2.89a4.44,4.44,0,0,0,6,1.59,4.52,4.52,0,0,0,1.59-6l-1.48-2.9a4.45,4.45,0,0,0-6-1.59,4.53,4.53,0,0,0-1.59,6.05Z"/><path d="M248.42,499.24l2.9,2.91a4.42,4.42,0,0,0,6.25-6.25L254.66,493a4.42,4.42,0,0,0-6.24,6.25Z"/><path d="M279,506.08l-1.45,1.45a4.57,4.57,0,0,0-1.3,3.13,3.35,3.35,0,0,0,.39,1.7,3.28,3.28,0,0,0,.91,1.42,4.46,4.46,0,0,0,3.12,1.29,4.6,4.6,0,0,0,3.12-1.29l1.46-1.46a4.55,4.55,0,0,0,1.29-3.12,3.22,3.22,0,0,0-.38-1.7,3.31,3.31,0,0,0-.91-1.42,4.47,4.47,0,0,0-3.12-1.3,4.63,4.63,0,0,0-3.13,1.3Z"/><path d="M107.24,390.33,105.82,386a4.42,4.42,0,0,0-8.52,2.35l1.42,4.37a4.42,4.42,0,0,0,8.52-2.34Z"/><path class="cls-4" d="M71.91,122.48A287.51,287.51,0,0,0,57.56,245.63c.55,5.6,9.39,5.66,8.83,0a282.38,282.38,0,0,1,14-120.8c1.84-5.39-6.68-7.71-8.52-2.35Z"/><path class="cls-4" d="M92.28,217.45a377,377,0,0,0-9.71,60.66c-.44,5.67,8.39,5.64,8.83,0a362.58,362.58,0,0,1,9.4-58.31c1.36-5.52-7.16-7.88-8.52-2.35Z"/><path class="cls-4" d="M374.61,333.36c1.5,49.31-16.73,113.83-47.84,152.42-3.54,4.39,2.67,10.68,6.24,6.25,33-40.91,52-106.49,50.43-158.67-.17-5.67-9-5.69-8.83,0Z"/><path class="cls-4" d="M373.73,465.13c-.28,15-11.91,26-22.24,35.51-4.19,3.86,2.07,10.1,6.24,6.25,12.24-11.29,24.51-24.12,24.83-41.76.11-5.68-8.73-5.68-8.83,0Z"/><path class="cls-4" d="M426.39,383.49c5.2,45.77-24.1,91.2-51.46,125.55-3.51,4.4,2.7,10.69,6.24,6.24,28.77-36.11,59.54-83.5,54.05-131.79-.64-5.58-9.48-5.64-8.83,0Z"/></g></g></svg>